<svg xmlns="http://www.w3.org/2000/svg" viewBox="0 -0.5 32 32" shape-rendering="crispEdges">
<metadata>Made with Pixels to Svg https://codepen.io/shshaw/pen/XbxvNj</metadata>
<path stroke="#ffffff" d="M6 0h4M5 1h6M5 2h6M5 3h6M5 4h6M6 5h4M23 5h2M22 6h3M4 7h8M14 7h4M24 7h1M3 8h10M15 8h3M24 8h1M3 9h10M24 9h1M3 10h10M22 10h5M4 11h8M1 12h1M1 13h2M1 14h2M10 14h4M1 15h2M9 15h6M25 15h2M1 16h2M8 16h8M25 16h2M1 17h2M6 17h11M25 17h2M1 18h2M5 18h14M25 18h2M1 19h1M4 19h16M25 19h2M3 20h18M25 20h2M2 21h20M25 21h2M1 22h22M25 22h3M2 23h20M26 23h3M4 24h16M28 24h2M4 25h16M23 25h2M29 25h2M4 26h16M23 26h3M29 26h2M4 27h6M14 27h6M24 27h3M28 27h2M4 28h6M14 28h6M25 28h5M4 29h6M14 29h6M27 29h2M4 30h6M14 30h6M5 31h4M14 31h5" />
<path stroke="#ff0000" d="M22 2h5M20 3h9M19 4h11M18 5h5M25 5h5M18 6h4M25 6h6M18 7h6M25 7h6M18 8h6M25 8h6M18 9h6M25 9h6M18 10h4M27 10h4M19 11h11M19 12h11M20 13h9M22 14h5" />
</svg>